<svg width="100%" height="100%" viewBox="0 0 1440 1024" fill="none" xmlns="http://www.w3.org/2000/svg" preserveAspectRatio="xMidYMid slice">
      <g id="scene" clip-path="url(#clip0_0_1)">
      <rect width="1440" height="1024" fill="#2C3B52"/>
      <path id="purpleBack" d="M761.982 397.178C855.895 251.613 626.27 241.108 727.24 0H1440V1035.46L761.982 1116C754.201 1097.99 733.646 1043.07 713.669 967.433C688.698 872.891 829.296 848.38 787.496 704.816C745.697 561.251 668.07 542.743 761.982 397.178Z" fill="#C3A9FF" stroke="#C3A9FF"/>
      <g id="desktop">
      <path id="Polygon 1" d="M1157 798L1221.09 867.75H1092.91L1157 798Z" fill="white"/>
      <rect id="Rectangle 3" x="1123" y="780" width="65" height="65" fill="white"/>
      <rect id="Rectangle 2" x="949" y="512" width="415" height="286" rx="10" fill="white"/>
      <ellipse id="Ellipse 1" cx="1157" cy="870.5" rx="64" ry="20.5" fill="white"/>
      <rect id="Rectangle 7" x="964" y="526" width="385" height="256" rx="8" fill="#FFBCBC"/>
      </g>
      <g id="phone">
      <rect id="Rectangle 1" width="115.19" height="207.513" rx="10" transform="matrix(0.999991 -0.00424479 0.00390772 0.999992 891 684.489)" fill="#2C3B52"/>
      <rect id="Rectangle 6" x="898" y="690" width="102" height="195" rx="6" fill="#ABFFFA"/>
      <path id="Rectangle 8" d="M928 688H970V690C970 694.418 966.418 698 962 698H936C931.582 698 928 694.418 928 690V688Z" fill="#2C3B52"/>
      </g>
      <g id="frames">
      <g id="frame1">
      <rect id="mainFrame3" x="886" y="233.126" width="322.31" height="219.874" rx="10" fill="white"/>
      <path id="Rectangle 4" d="M886 243C886 237.477 890.477 233 896 233H1198C1203.52 233 1208 237.477 1208 243V258H886V243Z" fill="#2C3B52"/>
      </g>
      <g id="frame2">
      <rect id="mainFrame2" x="937" y="176" width="322.31" height="219.874" rx="10" fill="#ABFFFA"/>
      <path id="Rectangle 5" d="M937 186C937 180.477 941.477 176 947 176H1249C1254.52 176 1259 180.477 1259 186V201H937V186Z" fill="#2C3B52"/>
      </g>
      <g id="frame3">
      <rect id="mainFrame1" x="1048" y="113" width="322.31" height="219.874" rx="10" fill="#FFBCBC"/>
      <path id="Rectangle 4_2" d="M1048 123C1048 117.477 1052.48 113 1058 113H1360C1365.52 113 1370 117.477 1370 123V138H1048V123Z" fill="#2C3B52"/>
      </g>
      </g>
      </g>
      <defs>
      <clipPath id="clip0_0_1">
      <rect width="1440" height="1024" fill="white"/>
      </clipPath>
      </defs>
      </svg>