<svg width="430" height="81" viewBox="0 0 430 81" fill="none" xmlns="http://www.w3.org/2000/svg">
<g id="Frame 1">
<rect width="430" height="81" rx="1" fill="#EEEEEE"/>
<path id="codePenLogo" d="M241.998 49.0776L215 31.9224L188 49.0776M188 31.9233L215 48.8466L242 31.9242M215 15V31.9224M215 49.0767V65.9991M188 49.0776L215 66L242 49.0776V31.9224L215 15L188 31.9224V49.0776Z" stroke="white" stroke-width="6.05" stroke-linecap="round" stroke-linejoin="round"/>
<path id="gitHubLogo" d="M215 14C200.092 14 188 26.1653 188 41.1699C188 53.1745 195.735 63.3587 206.466 66.9519C207.813 67.2033 208.25 66.361 208.25 65.6455V60.5874C200.739 62.2312 199.176 57.3813 199.176 57.3813C197.947 54.2409 196.177 53.4055 196.177 53.4055C193.726 51.7187 196.363 51.7549 196.363 51.7549C199.075 51.9451 200.501 54.5557 200.501 54.5557C202.909 58.7081 206.817 57.5081 208.358 56.813C208.599 55.0583 209.299 53.8583 210.073 53.1813C204.076 52.4907 197.772 50.1609 197.772 39.7526C197.772 36.7842 198.827 34.3616 200.553 32.4597C200.274 31.7737 199.349 29.0091 200.816 25.2687C200.816 25.2687 203.084 24.5397 208.243 28.0536C210.396 27.4514 212.705 27.1502 215 27.1389C217.295 27.1502 219.606 27.4514 221.763 28.0536C226.918 24.5397 229.182 25.2687 229.182 25.2687C230.651 29.0114 229.726 31.7759 229.447 32.4597C231.18 34.3616 232.226 36.7865 232.226 39.7526C232.226 50.1881 225.91 52.4862 219.898 53.1587C220.866 54.0009 221.75 55.6538 221.75 58.1896V65.6455C221.75 66.3678 222.182 67.2168 223.552 66.9497C234.273 63.3519 242 53.17 242 41.1699C242 26.1653 229.911 14 215 14Z" fill="white"/>
<path id="linkedInLogo" d="M230.75 14H199.25C193.038 14 188 18.9445 188 25.0417V55.9583C188 62.0555 193.038 67 199.25 67H230.75C236.965 67 242 62.0555 242 55.9583V25.0417C242 18.9445 236.965 14 230.75 14ZM206 55.9583H199.25V31.6667H206V55.9583ZM202.625 28.8665C200.451 28.8665 198.688 27.1219 198.688 24.971C198.688 22.8201 200.451 21.0755 202.625 21.0755C204.799 21.0755 206.562 22.8201 206.562 24.971C206.562 27.1219 204.801 28.8665 202.625 28.8665ZM233 55.9583H226.25V43.5828C226.25 36.1452 217.25 36.7083 217.25 43.5828V55.9583H210.5V31.6667H217.25V35.5644C220.391 29.8536 233 29.4318 233 41.0322V55.9583Z" fill="white"/>
</g>
</svg>
